# xmcd
#
# Track frame offsets:
#	150
#	15500
#	37297
#	50765
#	62445
#	81427
#	98462
#	118862
#	134687
#	162555
#	175807
#	191237
#
# Disc length: 2755 seconds
#
# Revision: 1
# Processed by: cddbd v1.5.2PL0 Copyright (c) Steve Scherf et al.
# Submitted via: audiograbber 1.83.01
#
DISCID=ac0ac10c
DTITLE=Various Artist - Deutsche Schlagerparade Vol. 2
DYEAR=1900
DGENRE=Schlager
TTITLE0=The Schlagerflowers - Küssen oder so
TTITLE1=Die Schlager Masters - Chaos
TTITLE2=The Schlagerflowers - Viel zu weit
TTITLE3=Joe Raphael und die Party-Singers - Sascha? ein aufrechter Deutscher
TTITLE4=Silvia Santona - Mehr
TTITLE5=Michael Beaven and Band - Saft
TTITLE6=Die Schlager Masters - Für mich soll's Rote Rosen regnen
TTITLE7=Die Schlager Masters - Tausend Augen
TTITLE8=Die Schlager Masters - Jenseits von Liebe
TTITLE9=Silvia Santona - Canzone di luna
TTITLE10=Gudrun Fischers Partycombo - Wenn ich dich nicht lieben würde
TTITLE11=The Schlagerflowers - Bis in alle Ewigkeit
EXTD=
EXTT0=
EXTT1=
EXTT2=
EXTT3=
EXTT4=
EXTT5=
EXTT6=
EXTT7=
EXTT8=
EXTT9=
EXTT10=
EXTT11=
PLAYORDER=
